<?xml version="1.0" encoding="UTF-8"?> <svg xmlns="http://www.w3.org/2000/svg" xmlns:xlink="http://www.w3.org/1999/xlink" viewBox="0 0 50 50" fill="#ffffff"><g id="surface1" fill="#ffffff"><path style=" " d="M 11 0 C 9.839844 0 9 0.839844 9 2 L 9 19 C 9 20.160156 9.839844 21 11 21 L 39 21 C 40.160156 21 41 20.160156 41 19 L 41 2 C 41 0.839844 40.160156 0 39 0 Z M 23 6 L 28.09375 10.8125 L 25.6875 11 L 26.90625 13.59375 L 25.90625 14 L 24.8125 11.40625 L 23 13.09375 Z M 18 22 L 18 24 L 32 24 L 32 22 Z M 1 25 C 0.449219 25 0 25.449219 0 26 L 0 29 C 0 29.554688 0.449219 30 1 30 L 49 30 C 49.554688 30 50 29.554688 50 29 L 50 26 C 50 25.449219 49.554688 25 49 25 Z M 2 32 L 2 49 C 2 49.554688 2.449219 50 3 50 L 6 50 C 6.550781 50 7 49.554688 7 49 L 7 32 Z M 43 32 L 43 49 C 43 49.554688 43.445313 50 44 50 L 47 50 C 47.554688 50 48 49.554688 48 49 L 48 32 Z " fill="#ffffff"></path></g></svg> 