<?xml version="1.0" encoding="UTF-8" standalone="no"?> <svg xmlns="http://www.w3.org/2000/svg" xmlns:xlink="http://www.w3.org/1999/xlink" xmlns:serif="http://www.serif.com/" width="100%" height="100%" viewBox="0 0 570 133" xml:space="preserve" style="fill-rule:evenodd;clip-rule:evenodd;stroke-linejoin:round;stroke-miterlimit:1.41421;"><g><g><path d="M51.758,0c20.951,0.1 41.279,13.892 48.534,34.474c6.492,18.416 1.519,40.412 -12.868,54.294c-11.835,11.421 -29.271,16.683 -45.598,13.551c-20.829,-3.995 -38.388,-21.809 -41.377,-43.645c-2.594,-18.949 6.208,-39.126 22.545,-50.025c8.358,-5.576 18.33,-8.601 28.431,-8.649c0.111,0 0.222,0 0.333,0Zm-0.323,3.243c-21.938,0.104 -43.002,16.526 -47.356,39.224c-3.016,15.724 2.324,32.834 14.036,44.068c11.104,10.65 27.403,15.52 42.631,12.6c19.528,-3.746 35.901,-20.382 38.755,-40.75c2.497,-17.822 -5.756,-36.795 -21.111,-47.039c-7.832,-5.225 -17.168,-8.058 -26.642,-8.103c-0.104,0 -0.208,0 -0.313,0Z" style="fill:#fff;fill-rule:nonzero;"></path><g><path d="M42.177,90.431l18.744,0c0,0 -2.232,1.308 -4.517,2.648c-2.998,1.757 -6.712,1.757 -9.71,0c-2.286,-1.34 -4.517,-2.648 -4.517,-2.648Z" style="fill:#fff;"></path><path d="M65.664,83.524c0,0 -15.809,0 -23.766,0c-1.184,0 -2.32,0.47 -3.157,1.308c-0.837,0.837 -1.307,1.972 -1.307,3.156c0,0 0,0 0,0c0,0 15.809,0 23.766,0c1.184,0 2.319,-0.47 3.156,-1.307c0.838,-0.837 1.308,-1.973 1.308,-3.157c0,0 0,0 0,0Z" style="fill:#fff;"></path><path d="M65.664,76.617c0,0 -15.809,0 -23.766,0c-1.184,0 -2.32,0.471 -3.157,1.308c-0.837,0.837 -1.307,1.973 -1.307,3.156c0,0.001 0,0.001 0,0.001c0,0 15.809,0 23.766,0c1.184,0 2.319,-0.471 3.156,-1.308c0.838,-0.837 1.308,-1.972 1.308,-3.156c0,0 0,-0.001 0,-0.001Z" style="fill:#fff;"></path></g><path d="M11.708,97.763l-0.002,0.001c-5.763,-10.239 -9.735,-21.545 -11.158,-33.138c1.441,5.544 3.803,10.755 6.89,15.464c1.688,5.154 3.854,10.152 6.466,14.949c0,0 3.309,6.201 4.951,9.308l-2.867,1.515l-4.28,-8.099Z" style="fill:#fff;"></path><path d="M87.069,99.003c0.861,-1.615 1.505,-2.822 1.505,-2.822c2.612,-4.797 4.778,-9.795 6.466,-14.949c3.086,-4.709 5.449,-9.92 6.89,-15.464c-1.423,11.593 -5.395,22.899 -11.159,33.138l-0.002,-0.001l-0.051,0.098l-3.649,0Z" style="fill:#fff;"></path><g><path d="M22.301,124.78l2.943,5.337c0.102,0.185 0.346,0.27 0.548,0.158l1.566,-0.863l0.4,0.724c0.046,0.084 0.1,0.142 0.145,0.183l-1.6,0.883c-0.707,0.389 -1.612,0.142 -2.002,-0.565l-2.943,-5.338l0.943,-0.519Zm11.663,2.197l-1.465,0.808c-0.005,-0.129 -0.046,-0.283 -0.111,-0.4l-0.315,-0.573l1.38,-0.761c0.202,-0.112 0.261,-0.363 0.159,-0.549l-2.943,-5.337l0.942,-0.52l2.944,5.337c0.39,0.707 0.116,1.605 -0.591,1.995" style="fill:#fff;"></path><path d="M24.777,124.292l-0.372,-0.673l0.943,-0.52l0.873,1.583l-0.674,0.371c-0.101,0.056 -0.131,0.16 -0.075,0.261l2.525,4.58c0.056,0.101 0.16,0.131 0.262,0.075l3.619,-1.996c0.101,-0.056 0.132,-0.16 0.076,-0.261l-2.526,-4.58c-0.055,-0.101 -0.16,-0.131 -0.261,-0.075l-0.673,0.371l-0.873,-1.582l0.943,-0.521l0.371,0.674c0.554,-0.151 1.149,0.091 1.436,0.613l2.526,4.58c0.334,0.606 0.124,1.381 -0.499,1.724l-3.619,1.996c-0.623,0.344 -1.39,0.108 -1.725,-0.498l-2.525,-4.58c-0.288,-0.522 -0.176,-1.154 0.248,-1.542" style="fill:#fff;"></path><path d="M29.816,121.206l-6.18,3.408l-0.343,-0.623c-0.938,-1.701 -0.319,-3.843 1.399,-4.79c1.7,-0.938 3.842,-0.318 4.78,1.382l0.344,0.623Zm-15.286,-15.614l4.058,-2.237c0.32,-0.177 0.706,-0.192 1.031,-0.042c0.149,0.072 0.123,0.064 0.229,0.137c0.132,0.081 0.248,0.171 0.373,0.278c0.221,0.163 0.436,0.352 0.65,0.542l-2.037,1.123c-0.236,0.13 -0.319,0.417 -0.199,0.636c0.121,0.219 0.409,0.302 0.644,0.172l2.324,-1.281c0.233,0.223 0.491,0.453 0.724,0.676l-2.593,1.43c-0.236,0.13 -0.319,0.417 -0.198,0.636c0.121,0.219 0.408,0.302 0.644,0.172l2.862,-1.578c0.25,0.214 0.482,0.437 0.724,0.676l-3.131,1.727c-0.236,0.13 -0.328,0.401 -0.198,0.637c0.12,0.218 0.408,0.302 0.643,0.172l3.402,-1.876c0.232,0.223 0.465,0.446 0.698,0.669l-3.654,2.015c-0.236,0.13 -0.319,0.417 -0.189,0.653c0.121,0.219 0.408,0.302 0.644,0.172l3.923,-2.164c0.233,0.223 0.466,0.446 0.698,0.669l-4.175,2.303c-0.236,0.13 -0.319,0.417 -0.198,0.636c0.13,0.236 0.417,0.319 0.653,0.189l4.428,-2.442c0.233,0.223 0.484,0.48 0.681,0.678l-4.664,2.572c-0.235,0.13 -0.318,0.417 -0.198,0.636c0.13,0.236 0.408,0.302 0.644,0.172l4.714,-2.6l3.575,6.483c0.409,0.74 0.111,1.673 -0.613,2.073l-0.707,0.39l-0.327,-0.633c-1.226,-2.222 -4.038,-3.021 -6.243,-1.805c-2.223,1.226 -3.031,4.021 -1.805,6.243l0.343,0.623l-0.707,0.39c-0.724,0.4 -1.672,0.154 -2.08,-0.587l-3.575,-6.482l4.731,-2.609c0.219,-0.121 0.311,-0.391 0.182,-0.627c-0.121,-0.219 -0.409,-0.302 -0.627,-0.181l-4.681,2.581c-0.063,-0.273 -0.146,-0.622 -0.21,-0.938l4.445,-2.452c0.219,-0.12 0.302,-0.408 0.172,-0.643c-0.121,-0.219 -0.408,-0.302 -0.627,-0.182l-4.193,2.312c-0.064,-0.315 -0.128,-0.631 -0.176,-0.956l3.923,-2.164c0.219,-0.12 0.302,-0.408 0.181,-0.627c-0.129,-0.235 -0.417,-0.318 -0.636,-0.198l-3.67,2.024c-0.065,-0.315 -0.129,-0.631 -0.193,-0.947l3.418,-1.885c0.219,-0.121 0.302,-0.408 0.181,-0.627c-0.13,-0.236 -0.408,-0.302 -0.627,-0.181l-3.149,1.736c-0.073,-0.332 -0.121,-0.657 -0.185,-0.973l2.879,-1.588c0.219,-0.121 0.302,-0.408 0.181,-0.627c-0.12,-0.219 -0.408,-0.302 -0.627,-0.181l-2.609,1.439c-0.065,-0.316 -0.122,-0.658 -0.186,-0.974l2.34,-1.29c0.219,-0.121 0.302,-0.408 0.182,-0.627c-0.121,-0.219 -0.408,-0.302 -0.627,-0.181l-2.054,1.132c-0.046,-0.282 -0.075,-0.573 -0.112,-0.838c-0.024,-0.163 -0.038,-0.309 -0.036,-0.464c-0.005,-0.129 -0.012,-0.103 0.007,-0.267c0.046,-0.354 0.265,-0.673 0.585,-0.85" style="fill:#fff;"></path></g><path d="M111.488,128.74c0.004,0 2.111,0.002 2.111,2.101c0,2.101 -2.111,2.101 -2.111,2.101l-42.022,0c0,0 -2.038,0 -2.038,-2.101c0,-2.099 2.034,-2.101 2.038,-2.101l42.022,0Zm-17.829,3.158c0.003,0 1.044,-0.001 1.044,-1.057c0,-1.044 -1.044,-1.044 -1.044,-1.044l-8.392,0c0,0 -1.057,0 -1.057,1.044c0,1.057 1.057,1.057 1.057,1.057l8.392,0Zm13.637,-31.989c0.007,0 4.202,0.003 4.202,4.202l-2.101,-0.01c0,-1.907 -2.306,-2.091 -2.306,-2.091l-33.197,0c0,0 -2.264,0.184 -2.264,2.091l0.181,23.329l-2.282,0l0,-23.319c0,-4.199 4.182,-4.202 4.189,-4.202l33.578,0Z" style="fill:#fff;"></path><path d="M77.852,114.281c0.36,0.101 0.37,0.122 0.544,0.417l1.619,3.108c0,0 3.003,-7.679 3.758,-9.336c0.135,-0.297 0.513,-0.606 0.77,-0.606c0.257,0 0.685,0.291 0.772,0.607c0.59,2.138 2.769,12.223 2.769,12.223l1.521,-5.727c0.2,-0.444 0.388,-0.499 0.757,-0.519l7.697,0l0,1.621l-7.073,0l-2.175,8.217c0,0 -0.117,0.35 -0.393,0.502c-0.44,0.242 -1.036,-0.03 -1.181,-0.529l-2.926,-12.785l-3.45,8.57c0,0 -0.2,0.384 -0.531,0.477c-0.357,0.102 -0.746,-0.079 -0.94,-0.405l-2.205,-4.233l-3.983,0l0,-1.621l4.563,0.004c0.029,0.005 0.058,0.01 0.087,0.015Z" style="fill:#fff;fill-rule:nonzero;"></path><path d="M115.647,116.426c0,2.753 -2.239,4.993 -4.993,4.993c-2.753,0 -4.993,-2.24 -4.993,-4.993c0,-2.753 2.24,-4.993 4.993,-4.993c2.754,0 4.993,2.24 4.993,4.993Zm5.831,2.467l0.353,0l0,-0.353l0,-4.111l0,-0.353l-0.353,0l-2.798,0c-0.164,-0.563 -0.389,-1.108 -0.669,-1.625l1.976,-1.976l0.249,-0.249l-0.249,-0.249l-2.908,-2.908l-0.249,-0.249l-0.249,0.249l-1.983,1.983c-0.491,-0.263 -1.005,-0.476 -1.535,-0.636l0,-2.756l0,-0.352l-0.353,0l-4.111,0l-0.353,0l0,3.108c-0.503,0.152 -0.992,0.351 -1.459,0.595l-1.941,-1.942l-0.25,-0.249l-0.249,0.249l-2.907,2.907l-0.25,0.25l0.25,0.249l1.899,1.9c-0.28,0.505 -0.507,1.035 -0.677,1.583l-2.714,0l-0.352,0l0,4.817l3.033,0c0.172,0.591 0.41,1.161 0.711,1.701l-1.9,1.9l-0.25,0.249l0.25,0.25l2.907,2.907l0.249,0.249l0.25,-0.249l1.941,-1.942c0.502,0.263 1.03,0.473 1.577,0.628l0,3.075l4.816,0l0,-0.352l0,-2.792c0.489,-0.155 0.964,-0.356 1.418,-0.6l1.983,1.983l0.249,0.249l0.249,-0.249l2.908,-2.908l0.249,-0.249l-0.249,-0.249l-1.976,-1.976c0.262,-0.482 0.474,-0.987 0.635,-1.507l2.832,0l0,0Z" style="fill:#fff;fill-rule:nonzero;"></path><path d="M32.927,40.509c-0.071,-4.621 0.181,-13.073 2.735,-16.72c-0.192,-0.233 -6.177,3.09 -4.4,11.483c0,0 -15.479,-12.617 8.632,-23.752c0.306,1.443 8.26,20.86 -4.273,22.829l1.304,6.16l-3.998,0Z" style="fill:#fff;"></path><path d="M28.32,47.725c-1.989,-2.258 -6.255,-7.458 -6.538,-10.835c-0.209,-0.039 -1.951,4.459 2.797,8.202c0,0 -14.071,0.151 -6.039,-16.753c0.816,0.643 13.88,7.568 7.983,14.287l2.414,1.903l-0.617,3.196Z" style="fill:#fff;"></path><path d="M71.119,40.32l-39.83,0c-1.154,0 -2.103,0.756 -2.103,1.687l-5.478,28.355c0,0.929 0.939,1.685 2.096,1.685l52.263,0c1.156,0 2.095,-0.756 2.095,-1.685l-6.947,-28.355c0,-0.931 -0.942,-1.687 -2.096,-1.687Zm-43.463,29.705c-0.355,0 -0.693,-0.158 -0.921,-0.431c-0.228,-0.273 -0.323,-0.633 -0.26,-0.983c0.888,-4.904 3.821,-21.109 4.577,-25.28c0.103,-0.571 0.6,-0.986 1.18,-0.986c5.561,0 32.568,0 37.997,0c0.558,0 1.042,0.384 1.169,0.927c0.948,4.058 4.739,20.282 5.906,25.28c0.084,0.357 0,0.732 -0.228,1.019c-0.228,0.287 -0.574,0.454 -0.94,0.454c-7.552,0 -41.105,0 -48.48,0Z" style="fill:#fff;fill-rule:nonzero;"></path><path d="M60.371,44.377l0,6.458l10.963,0l-1.828,-6.458l-9.135,0Z" style="fill:#fff;fill-rule:nonzero;"></path><path d="M60.421,59.376l12.794,0l-1.829,-6.456l-10.965,0l0,6.456Z" style="fill:#fff;fill-rule:nonzero;"></path><path d="M43.439,44.377l-9.861,0l-1.829,6.458l11.69,0l0,-6.458Z" style="fill:#fff;fill-rule:nonzero;"></path><rect x="46.115" y="44.377" width="11.69" height="6.448" style="fill:#fff;fill-rule:nonzero;"></rect><path d="M29.973,59.376l13.516,0l0,-6.456l-11.687,0l-1.829,6.456Z" style="fill:#fff;fill-rule:nonzero;"></path><rect x="46.157" y="52.92" width="11.7" height="6.458" style="fill:#fff;fill-rule:nonzero;"></rect><path d="M28.511,67.99l14.978,0l0,-6.456l-13.152,0l-1.826,6.456Z" style="fill:#fff;fill-rule:nonzero;"></path><rect x="46.157" y="61.534" width="11.7" height="6.458" style="fill:#fff;fill-rule:nonzero;"></rect><path d="M60.421,61.534l0,6.456l14.622,0l-1.828,-6.456l-12.794,0Z" style="fill:#fff;fill-rule:nonzero;"></path><path d="M72.051,38.286c1.667,0 3.022,1.09 3.022,2.445l2.814,11.496c2.758,-2.283 4.554,-5.705 4.554,-9.565c0,-6.881 -5.584,-12.469 -12.484,-12.469c-5.346,0 -9.874,3.377 -11.64,8.108l13.734,0l0,-0.015Z" style="fill:#fff;fill-rule:nonzero;"></path><path d="M68.535,27.009l3.686,0c0.087,0 0.177,-0.03 0.234,-0.106c0.06,-0.071 0.075,-0.162 0.045,-0.249l-1.205,-6.855c-0.06,-0.249 -1.76,-0.249 -1.835,0l-1.205,6.855c-0.03,0.087 0,0.178 0.061,0.249c0.041,0.076 0.132,0.106 0.219,0.106Z" style="fill:#fff;fill-rule:nonzero;"></path><path d="M85.626,40.731l0,3.686c0,0.087 0.03,0.178 0.106,0.234c0.071,0.061 0.162,0.076 0.249,0.045l6.855,-1.204c0.249,-0.06 0.249,-1.76 0,-1.835l-6.855,-1.205c-0.087,-0.03 -0.178,0 -0.249,0.06c-0.076,0.042 -0.106,0.132 -0.106,0.219Z" style="fill:#fff;fill-rule:nonzero;"></path><path d="M79.866,30.331l2.606,2.606c0.061,0.061 0.147,0.104 0.24,0.091c0.094,-0.008 0.168,-0.062 0.208,-0.144l3.996,-5.7c0.133,-0.218 -1.068,-1.42 -1.298,-1.297l-5.699,3.995c-0.083,0.04 -0.125,0.126 -0.133,0.219c-0.025,0.083 0.018,0.168 0.08,0.23Z" style="fill:#fff;fill-rule:nonzero;"></path><path d="M60.24,30.331l-2.606,2.606c-0.061,0.061 -0.147,0.104 -0.24,0.091c-0.094,-0.008 -0.168,-0.062 -0.208,-0.144l-3.996,-5.7c-0.133,-0.218 1.068,-1.42 1.298,-1.297l5.699,3.995c0.083,0.04 0.125,0.126 0.133,0.219c0.024,0.083 -0.018,0.168 -0.08,0.23Z" style="fill:#fff;fill-rule:nonzero;"></path></g><g><path d="M161.297,41.116c5.097,0 8.971,0.943 11.623,2.828c2.652,1.885 3.978,4.734 3.978,8.546c0,2.113 -0.332,4.019 -0.995,5.718c-0.663,1.699 -1.719,3.128 -3.17,4.288c-1.45,1.161 -3.304,2.051 -5.562,2.673c-2.258,0.622 -4.962,0.932 -8.111,0.932l-37.229,0l0.003,-10.69l38.22,0c1.533,0 2.652,-0.238 3.357,-0.715c0.704,-0.476 1.056,-1.253 1.056,-2.33c0,-1.078 -0.352,-1.844 -1.056,-2.3c-0.705,-0.456 -1.824,-0.684 -3.357,-0.684l-22.623,0c-2.693,0 -5.014,-0.29 -6.961,-0.87c-1.948,-0.58 -3.563,-1.388 -4.848,-2.424c-1.284,-1.036 -2.237,-2.289 -2.859,-3.76c-0.621,-1.471 -0.932,-3.097 -0.932,-4.879c0,-1.947 0.342,-3.719 1.025,-5.314c0.684,-1.595 1.741,-2.952 3.17,-4.071c1.43,-1.119 3.273,-1.989 5.532,-2.61c2.258,-0.622 4.961,-0.932 8.11,-0.932l37.233,0l-8.95,10.814l-29.277,0c-1.492,0 -2.6,0.207 -3.325,0.622c-0.725,0.414 -1.088,1.16 -1.088,2.237c0,1.077 0.363,1.833 1.088,2.269c0.725,0.435 1.833,0.652 3.325,0.652l22.623,0Z" style="fill:#fff;fill-rule:nonzero;"></path><rect x="184.359" y="58.892" width="8.701" height="7.21" style="fill:#fff;"></rect><rect x="220.843" y="58.892" width="8.701" height="7.21" style="fill:#fff;"></rect><rect x="299.598" y="58.892" width="8.701" height="7.21" style="fill:#fff;"></rect><rect x="200.519" y="24.522" width="12.865" height="41.58" style="fill:#fff;fill-rule:nonzero;"></rect><path d="M292.14,66.101l-17.216,0l-9.261,-11.001l-15.786,0l0,11.001l-12.866,0l0,-21.26l32.195,0.004c1.989,0 3.667,-0.414 5.034,-1.243c1.368,-0.828 2.051,-1.968 2.051,-3.418c0,-1.616 -0.621,-2.828 -1.864,-3.636c-1.243,-0.808 -2.984,-1.212 -5.221,-1.212l-32.195,0l-0.009,-10.814l31.147,0c2.362,0 4.807,0.217 7.334,0.652c2.528,0.435 4.827,1.212 6.899,2.331c2.072,1.119 3.781,2.631 5.128,4.537c1.346,1.906 2.02,4.351 2.02,7.334c0,1.616 -0.249,3.149 -0.746,4.599c-0.497,1.45 -1.212,2.756 -2.144,3.916c-0.933,1.16 -2.072,2.144 -3.419,2.952c-1.346,0.808 -2.869,1.378 -4.568,1.709c0.704,0.539 1.492,1.222 2.362,2.051c0.87,0.829 2.03,1.968 3.48,3.419l7.645,8.079Z" style="fill:#fff;fill-rule:nonzero;"></path><path d="M386.668,24.522l-8.958,10.814l-15.716,0l0,30.765l-12.865,0l0,-30.765l-21.008,0l-0.124,-10.814l58.671,0Z" style="fill:#fff;fill-rule:nonzero;"></path><path d="M435.511,55.411l0.186,10.69l-48.842,0l0,-30.753l8.95,-10.826l39.715,0l-8.959,10.814l-26.779,0.012l0,4.96l18.525,0l0,9.447l-18.525,0l0,5.656l35.729,0Z" style="fill:#fff;fill-rule:nonzero;"></path><path d="M492.073,55.411l-0.004,10.69l-23.866,0c-3.605,0 -6.94,-0.538 -10.006,-1.616c-3.067,-1.077 -5.708,-2.558 -7.925,-4.444c-2.217,-1.885 -3.957,-4.122 -5.221,-6.712c-1.263,-2.59 -1.895,-5.397 -1.895,-8.422c0,-3.024 0.632,-5.79 1.895,-8.297c1.264,-2.507 3.004,-4.661 5.221,-6.464c2.217,-1.802 4.858,-3.19 7.925,-4.164c3.066,-0.974 6.401,-1.46 10.006,-1.46l23.87,0l-8.953,10.814l-14.917,0c-1.74,0 -3.356,0.249 -4.848,0.746c-1.491,0.497 -2.776,1.191 -3.853,2.082c-1.078,0.891 -1.927,1.958 -2.548,3.201c-0.622,1.243 -0.933,2.61 -0.933,4.102c0,1.491 0.301,2.848 0.901,4.071c0.601,1.222 1.451,2.268 2.549,3.138c1.098,0.871 2.393,1.544 3.884,2.02c1.492,0.477 3.108,0.715 4.848,0.715l23.87,0Z" style="fill:#fff;fill-rule:nonzero;"></path><path d="M549.999,66.101l-12.804,0l0,-16.035l-24.736,0l0,16.035l-12.928,0l0,-41.579l12.928,0l0,14.73l24.736,0l0,-3.904l0,-10.826l12.804,0l0,41.579Z" style="fill:#fff;fill-rule:nonzero;"></path><text x="555.115px" y="66.101px" style="font-family:'OpenSans-Semibold', 'Open Sans', sans-serif;font-weight:600;font-size:10.247px;fill:#fff;">T<tspan x="561.426px " y="66.101px ">M</tspan></text></g><text x="224.974px" y="104.339px" style="font-family:'CenturyGothic', 'Century Gothic', sans-serif;font-size:35.133px;fill:#fff;">J<tspan x="243.662px 269.419px 304.13px 329.886px 338.676px 363.163px 388.92px 400.403px 418.389px 432.051px 457.876px " y="104.339px 104.339px 104.339px 104.339px 104.339px 104.339px 104.339px 104.339px 104.339px 104.339px 104.339px ">amaica Ltd.</tspan></text></g></svg> 