<?xml version="1.0" encoding="UTF-8"?> <svg xmlns="http://www.w3.org/2000/svg" xmlns:xlink="http://www.w3.org/1999/xlink" viewBox="0 0 26 26" fill="#ffffff"><g id="surface1" fill="#ffffff"><path style=" " d="M 13 0 C 13 0 12.292969 2.199219 11.59375 2.5 C 10.894531 2.800781 8.8125 1.8125 8.8125 1.8125 C 8.8125 1.8125 9.800781 3.894531 9.5 4.59375 C 9.199219 5.292969 7 6 7 6 C 7 6 8.394531 6.398438 9.09375 7 L 10.09375 7 C 9.992188 6.699219 9.90625 6.398438 9.90625 6 C 9.90625 4.300781 11.300781 2.90625 13 2.90625 C 14.699219 2.90625 16.09375 4.300781 16.09375 6 C 16.09375 6.398438 16.007813 6.699219 15.90625 7 L 17 7 C 17.699219 6.5 19 6 19 6 C 19 6 16.894531 5.394531 16.59375 4.59375 C 16.292969 3.695313 17.1875 1.8125 17.1875 1.8125 C 17.1875 1.8125 15.199219 2.898438 14.5 2.5 C 13.898438 2.101563 13 0 13 0 Z M 4 8 C 3.5 8 3.199219 8.289063 3 8.6875 L 0 19.6875 L 0 21 C 0 21.601563 0.398438 22 1 22 L 25 22 C 26 22 26 21 26 21 L 26 20 C 26 19.800781 26.007813 19.695313 25.90625 19.59375 L 23 8.6875 C 22.800781 8.289063 22.5 8 22 8 Z M 4.8125 10 L 21.3125 10 L 23.8125 19 L 2.3125 19 Z M 6.1875 11 L 5.59375 13.40625 L 9.3125 13.40625 L 9.59375 11 Z M 11.3125 11 L 11.1875 13.40625 L 14.90625 13.5 L 14.6875 11 Z M 16.40625 11 L 16.6875 13.5 L 20.40625 13.5 L 19.8125 11 Z M 5.1875 15 L 4.5 18 L 8.6875 18 L 9.09375 15 Z M 11.09375 15 L 10.90625 18 L 15.09375 18 L 15 15 Z M 16.90625 15 L 17.3125 18 L 21.5 18 L 20.8125 15 Z M 11 23 L 11 24 L 9 24 C 8 24 8 25 8 25 L 8 26 L 18 26 L 18 25 C 18 24.398438 17.601563 24 17 24 L 15 24 L 15 23 Z " fill="#ffffff"></path></g></svg> 